:SAMPLES-PER-SECOND 30
:FULLY-SPECIFIED
:DEGREES
82
root  -5.27644 39.8517 21.6595 -177.876 -47.1856 173.428
RightUpLeg  -19.1528 -6.99265 1.95837
RightLeg  3.46503 -15.5881 5.07717
RightFoot  -2.89738 -0.273959 3.43791
RightToes  -1.16417e-010 0 -3.6325e-017
Spine  6.63978 -2.97866 -6.8117
Spine1  6.26446 -4.63376 4.78874
HEad  -12.1395 -3.55067 3.82831
LeftShoulder1  7.87819 -11.5238 -45.7031
LeftArm  -14.6703 10.2309 -13.8921
LeftForeArm  19.241 -13.2506 -3.83024
LeftHand  -0.244104 0.0205437 5.32207
RightShoulder  5.43405 8.65075 38.6364
RightArm  -3.79026 -21.4988 21.7008
RightForeArm  2.44243 8.40501 7.4101
RightHand  -1.7998 4.93455 -20.3171
LeftUpLeg  12.5414 7.21875 1.27063
LeftLeg  6.18202 17.6213 -4.62335
LeftFoot  -13.3695 -0.0339365 -6.42935
LeftToes  5.72949e-011 -1.2716e-010 -5.73128e-012
83
root  -6.50014 39.5456 21.0887 -176.856 -46.7548 172.393
RightUpLeg  -18.5649 -3.03104 0.337598
RightLeg  -5.42179 -18.6045 8.1528
RightFoot  -3.19661 -0.237764 3.03968
RightToes  -1.16417e-010 0 -3.6325e-017
Spine  6.89925 -3.46141 -7.55752
Spine1  5.76797 -5.16367 5.00608
HEad  -12.977 -3.67881 4.32005
LeftShoulder1  7.7711 -11.4708 -45.2241
LeftArm  -16.0213 7.68378 -11.3256
LeftForeArm  18.1126 -14.0704 -3.63375
LeftHand  -0.244104 0.0205437 5.32207
RightShoulder  5.1598 8.25141 37.8547
RightArm  -7.60493 -24.1299 21.2983
RightForeArm  -0.980328 7.2658 6.54023
RightHand  -1.95125 5.34439 -21.1698
LeftUpLeg  14.547 6.90717 -0.0486606
LeftLeg  5.98189 18.0419 -4.8245
LeftFoot  -15.0164 -0.130662 -6.8391
LeftToes  5.72949e-011 -1.2716e-010 -5.73128e-012
84
root  -7.76462 39.1998 20.4521 -176.623 -46.5266 171.906
RightUpLeg  -19.6549 -3.04989 0.237175
RightLeg  -5.46025 -17.8234 7.60296
RightFoot  -4.41915 -0.216899 3.07045
RightToes  -1.16417e-010 0 -3.6325e-017
Spine  7.41651 -3.76305 -7.07724
Spine1  5.53912 -5.33868 4.50102
HEad  -14.2126 -4.06898 4.54315
LeftShoulder1  7.66198 -11.3917 -44.8093
LeftArm  -18.1124 4.867 -9.77729
LeftForeArm  17.5298 -15.3445 -3.39253
LeftHand  -0.244104 0.0205437 5.32207
RightShoulder  4.97989 8.01765 37.207
RightArm  -10.6189 -26.703 21.3735
RightForeArm  -4.04831 6.03317 5.684
RightHand  -1.98128 5.49996 -21.1867
LeftUpLeg  16.6827 6.90075 -0.757242
LeftLeg  6.69708 17.9993 -4.75515
LeftFoot  -16.7734 -0.253264 -7.45957
LeftToes  5.72949e-011 -1.2716e-010 -5.73128e-012
85
root  -9.06325 38.9384 19.7145 -177.305 -46.7891 172.496
RightUpLeg  -20.2712 -3.4591 0.456453
RightLeg  -1.64904 -19.5832 6.6034
RightFoot  -4.36563 -0.14815 1.90926
RightToes  -1.16417e-010 0 -3.6325e-017
Spine  7.72826 -4.03392 -5.7063
Spine1  6.02323 -5.6527 4.34136
HEad  -15.7086 -4.37739 4.31702
LeftShoulder1  7.62441 -11.4173 -44.5003
LeftArm  -20.5751 2.83658 -9.45651
LeftForeArm  17.7812 -17.9485 -3.30382
LeftHand  -0.244104 0.0205437 5.32207
RightShoulder  4.92071 8.02279 36.69
RightArm  -12.4756 -28.8557 21.6506
RightForeArm  -5.46014 4.58582 4.98482
RightHand  -1.98554 5.70218 -20.8602
LeftUpLeg  18.8128 7.22341 -0.304286
LeftLeg  7.98188 17.3183 -4.34036
LeftFoot  -17.4351 -0.3241 -8.02262
LeftToes  5.72949e-011 -1.2716e-010 -5.73128e-012
86
root  -10.472 38.7513 18.7857 -178.211 -47.8539 173.717
RightUpLeg  -20.981 -5.93125 1.43611
RightLeg  4.36673 -21.7414 4.80697
RightFoot  -2.57261 0.103472 -1.38292
RightToes  -1.16417e-010 0 -3.6325e-017
Spine  6.9458 -4.58485 -4.03156
Spine1  6.81369 -6.31236 4.72662
HEad  -16.6082 -4.51378 3.48886
LeftShoulder1  7.67688 -11.5196 -44.5015
LeftArm  -21.9235 2.34729 -9.94158
LeftForeArm  18.6775 -22.0834 -3.78233
LeftHand  -0.244104 0.0205437 5.32207
RightShoulder  4.92792 8.11693 36.4134
RightArm  -13.0422 -30.8043 21.8282
RightForeArm  -5.32843 3.30361 4.52936
RightHand  -2.06221 6.09818 -20.9203
LeftUpLeg  20.6156 8.71241 1.58619
LeftLeg  10.1607 14.2634 -3.41935
LeftFoot  -17.2748 -0.401299 -9.70107
LeftToes  5.72949e-011 -1.2716e-010 -5.73128e-012
87
root  -11.9673 38.7142 17.7222 -179.484 -48.447 175.876
RightUpLeg  -21.5763 -10.738 4.20615
RightLeg  9.22377 -19.9824 2.76825
RightFoot  0.9406 0.775555 -7.0981
RightToes  -1.16417e-010 0 -3.6325e-017
Spine  5.31677 -4.92513 -0.972681
Spine1  7.40826 -6.57716 4.73272
HEad  -16.2694 -4.60532 2.05864
LeftShoulder1  7.71516 -11.4666 -44.8996
LeftArm  -21.3169 3.28368 -10.8274
LeftForeArm  20.4596 -27.3954 -4.79488
LeftHand  -0.244104 0.0205437 5.32207
RightShoulder  4.95204 8.12853 36.5746
RightArm  -12.9367 -32.802 21.8845
RightForeArm  -4.67543 2.7221 4.30712
RightHand  -2.13018 6.34874 -21.1456
LeftUpLeg  22.4368 13.084 5.52269
LeftLeg  12.2674 7.9712 -2.20681
LeftFoot  -15.5467 -0.400476 -13.6853
LeftToes  5.72949e-011 -1.2716e-010 -5.73128e-012
